<svg width="81" height="81" viewBox="0 0 81 81" fill="none" xmlns="http://www.w3.org/2000/svg">
<g filter="url(#filter0_d_126_52)">
<path fill-rule="evenodd" clip-rule="evenodd" d="M31.1628 19.5232C31.1628 17.0469 32.1466 14.6719 33.8976 12.9208C35.6487 11.1698 38.0237 10.186 40.5001 10.186C42.9764 10.186 45.3514 11.1698 47.1025 12.9208C48.8535 14.6719 49.8373 17.0469 49.8373 19.5232C49.8373 21.9996 48.8535 24.3746 47.1025 26.1257C45.3514 27.8767 42.9764 28.8605 40.5001 28.8605C38.0237 28.8605 35.6487 27.8767 33.8976 26.1257C32.1466 24.3746 31.1628 21.9996 31.1628 19.5232ZM40.5001 15.2791C39.3744 15.2791 38.2949 15.7262 37.499 16.5222C36.703 17.3181 36.2559 18.3976 36.2559 19.5232C36.2559 20.6489 36.703 21.7284 37.499 22.5243C38.2949 23.3203 39.3744 23.7674 40.5001 23.7674C41.6257 23.7674 42.7052 23.3203 43.5011 22.5243C44.2971 21.7284 44.7442 20.6489 44.7442 19.5232C44.7442 18.3976 44.2971 17.3181 43.5011 16.5222C42.7052 15.7262 41.6257 15.2791 40.5001 15.2791Z" fill="#F2E8C6"/>
<path d="M17.7846 28.7144C18.0481 28.0927 18.5477 27.601 19.1736 27.3476C19.7995 27.0942 20.5004 27.0998 21.1222 27.3631L21.1256 27.3665L21.146 27.3766L21.2377 27.414L21.6112 27.5668C23.692 28.3989 25.8031 29.1532 27.9401 29.8281C31.9432 31.0844 36.7273 32.2558 40.4995 32.2558C44.2717 32.2558 49.0558 31.0844 53.0555 29.8281C55.3205 29.112 57.5564 28.3066 59.7579 27.414L59.853 27.3766L59.8733 27.3665H59.8767C60.4935 27.1271 61.1792 27.1371 61.7887 27.3944C62.3982 27.6517 62.8836 28.1361 63.1422 28.7451C63.4007 29.354 63.4122 30.0397 63.1741 30.6569C62.936 31.2742 62.467 31.7745 61.8664 32.052L61.8528 32.0588L61.8189 32.0724L61.7102 32.12L61.2926 32.2897C59.0868 33.1721 56.8489 33.9716 54.5834 34.6868C51.2288 35.7394 46.9914 36.8565 43.046 37.2232V41.4334C43.046 42.8934 43.467 44.3296 44.2581 45.5621L52.828 58.8889C53.009 59.1702 53.1329 59.4845 53.1924 59.8137C53.252 60.1429 53.2462 60.4806 53.1752 60.8076C53.1043 61.1345 52.9697 61.4443 52.779 61.7192C52.5883 61.9942 52.3454 62.2288 52.064 62.4099C51.7827 62.5909 51.4684 62.7147 51.1392 62.7743C50.81 62.8339 50.4723 62.828 50.1453 62.7571C49.8184 62.6862 49.5086 62.5515 49.2337 62.3609C48.9588 62.1702 48.7241 61.9273 48.5431 61.6459L40.4995 49.1307L32.4525 61.6459C32.2778 61.9403 32.0456 62.1964 31.7696 62.399C31.4937 62.6016 31.1797 62.7464 30.8465 62.8249C30.5134 62.9034 30.1678 62.914 29.8304 62.8559C29.4931 62.7978 29.1709 62.6722 28.8832 62.4868C28.5954 62.3014 28.348 62.0598 28.1557 61.7766C27.9635 61.4934 27.8303 61.1743 27.7641 60.8385C27.6979 60.5026 27.7002 60.1569 27.7707 59.8219C27.8412 59.4869 27.9785 59.1696 28.1744 58.8889L36.7408 45.5621C37.5328 44.3295 37.9535 42.8951 37.953 41.43V37.2232C34.0076 36.8565 29.7702 35.7428 26.4122 34.6868C24.0047 33.9258 21.6283 33.0695 19.2887 32.12L19.1767 32.0724L19.1461 32.0588L19.1326 32.0554C18.8246 31.9247 18.5454 31.7345 18.311 31.4958C18.0765 31.2571 17.8914 30.9745 17.7663 30.6643C17.6411 30.354 17.5783 30.0221 17.5814 29.6875C17.5846 29.3529 17.6536 29.0223 17.7846 28.7144Z" fill="#F2E8C6"/>
<path fill-rule="evenodd" clip-rule="evenodd" d="M4 36.5C4 16.3418 20.3418 0 40.5 0C60.6582 0 77 16.3418 77 36.5C77 56.6582 60.6582 73 40.5 73C20.3418 73 4 56.6582 4 36.5ZM40.5 5.09302C32.1704 5.09302 24.1819 8.40196 18.2919 14.2919C12.402 20.1819 9.09302 28.1704 9.09302 36.5C9.09302 44.8296 12.402 52.8181 18.2919 58.7081C24.1819 64.598 32.1704 67.907 40.5 67.907C48.8296 67.907 56.8181 64.598 62.7081 58.7081C68.598 52.8181 71.907 44.8296 71.907 36.5C71.907 28.1704 68.598 20.1819 62.7081 14.2919C56.8181 8.40196 48.8296 5.09302 40.5 5.09302Z" fill="#F2E8C6"/>
</g>
<defs>
<filter id="filter0_d_126_52" x="0" y="0" width="81" height="81" filterUnits="userSpaceOnUse" color-interpolation-filters="sRGB">
<feFlood flood-opacity="0" result="BackgroundImageFix"/>
<feColorMatrix in="SourceAlpha" type="matrix" values="0 0 0 0 0 0 0 0 0 0 0 0 0 0 0 0 0 0 127 0" result="hardAlpha"/>
<feOffset dy="4"/>
<feGaussianBlur stdDeviation="2"/>
<feComposite in2="hardAlpha" operator="out"/>
<feColorMatrix type="matrix" values="0 0 0 0 0 0 0 0 0 0 0 0 0 0 0 0 0 0 0.25 0"/>
<feBlend mode="normal" in2="BackgroundImageFix" result="effect1_dropShadow_126_52"/>
<feBlend mode="normal" in="SourceGraphic" in2="effect1_dropShadow_126_52" result="shape"/>
</filter>
</defs>
</svg>
